<?xml version="1.0" encoding="UTF-8" standalone="no"?>
<svg
   version="1.2"
   viewBox="0 0 167 103"
   width="167"
   height="103"
   id="svg24"
   xmlns="http://www.w3.org/2000/svg">
  <g
     id="Page 1">
    <g
       id="g3564"
       transform="matrix(1,0,0,0.99674954,-2528,-530.76913)">
      <path
         id="Background"
         class="s0"
         d="m 2657,619 h -83 c -3.9,0 -7,-3.1 -7,-7 0,-3.9 3.1,-7 7,-7 h -39 c -3.9,0 -7,-3.1 -7,-7 0,-3.9 3.1,-7 7,-7 h 40 c 3.9,0 7,-3.1 7,-7 0,-3.9 -3.1,-7 -7,-7 h -25 c -3.9,0 -7,-3.1 -7,-7 0,-3.9 3.1,-7 7,-7 h 40 c -3.9,0 -7,-3.1 -7,-7 0,-3.9 3.1,-7 7,-7 h 98 c 3.9,0 7,3.1 7,7 0,3.9 -3.1,7 -7,7 h -40 c 3.9,0 7,3.1 7,7 0,3.9 -3.1,7 -7,7 h 22 c 3.9,0 7,3.1 7,7 0,3.9 -3.1,7 -7,7 h -10.2 c -4.8,0 -8.8,3.1 -8.8,7 0,3.9 6,7 6,7 3.9,0 7,3.1 7,7 0,3.9 -3.1,7 -7,7 z m 31,-28 c -3.9,0 -7,-3.1 -7,-7 0,-3.9 3.1,-7 7,-7 3.9,0 7,3.1 7,7 0,3.9 -3.1,7 -7,7 z"
         fill="#6499E9"
          opacity="0.2"
          fill-opacity="1" />
      <path
         id="Shape"
         fill-rule="evenodd"
         class="s1"
         d="m 2634.7,548 9.3,67.8 0.8,6.8 c 0.3,2.2 -1.3,4.2 -3.5,4.5 l -58.5,7.2 c -2.2,0.3 -4.2,-1.3 -4.5,-3.5 l -9,-73.4 c -0.1,-1.1 0.6,-2.1 1.7,-2.2 q 0,0 0.1,0 l 4.8,-0.6 m 3.9,-0.4 4.6,-0.5"
         stroke="#6499E9"
          fill="#ffffff"
          stroke-opacity="1" />
      <path
         id="Rectangle"
         class="s2"
         d="m 2632.1,552.3 8.5,61.5 0.7,6.1 c 0.3,2 -1.1,3.8 -3.1,4.1 l -52.4,6.4 c -2,0.2 -3.8,-1.2 -4,-3.2 l -8.4,-68.3 8.4,-1.1"
         opacity="0.1"
          fill="#6499E9"
          fill-opacity="1" />
      <path
         id="path9"
         class="s3"
         d="m 2587.7,538 c 0,-2.2 1.8,-4 4,-4 h 45.5 c 1.1,0 2.1,0.4 2.9,1.2 l 13.4,13.4 c 0.8,0.8 1.2,1.8 1.2,2.8 V 614 c 0,2.2 -1.8,4 -4,4 h -59 c -2.2,0 -4,-1.8 -4,-4 z"
         stroke="#6499E9"
          fill="#ffffff"
          stroke-opacity="1" />
      <path
         id="path11"
         class="s4"
         d="m 2648.6,551 h -7.9 c -1.7,0 -3,-1.3 -3,-3 v -11.6"
          stroke="#6499E9"
          fill="#ffffff"
          stroke-opacity="1" />
      <path
         id="lines"
         class="s5"
         d="m 2599.7,551 h 26"
          opacity="0.5"
          stroke="#6499E9"
          stroke-opacity="1" />
      <path
         id="path14"
         class="s5"
         d="m 2599.7,563 h 43"
          opacity="0.5"
          stroke="#6499E9"
          stroke-opacity="1" />
      <path
         id="path16"
         class="s5"
         d="m 2599.7,576 h 43"
          opacity="0.5"
          stroke="#6499E9"
          stroke-opacity="1" />
      <path
         id="path18"
         class="s5"
         d="m 2599.7,589 h 43"
          opacity="0.5"
          stroke="#6499E9"
          stroke-opacity="1" />
      <path
         id="path20"
         class="s5"
         d="m 2599.7,602 h 26"
          opacity="0.5"
          stroke="#6499E9"
          stroke-opacity="1" />
    </g>
  </g>
</svg>
